# xmcd
# 
# Track frame offsets:
#     150
#     17965
#     39286
#     54611
#     70069
#     85117
#     103874
#     122393
#     138989
#     155105
#     177900
#     195111
# 
# Disc length: 2830
# 
# Revision: 2
# Processed by: cddbd v1.5.2PL0 Copyright (c) Steve Scherf et al.
# Submitted via: fre:ac v1.0.17
# 
DISCID=970b0c0c
DTITLE=Dylan LeBlanc - Paupers Filed
DYEAR=2010
DGENRE=Country
TTITLE0=LOW
TTITLE1=If Time was for Wasting
TTITLE2=If the Creek Don't Rise
TTITLE3=Tuesday Night Rain
TTITLE4=Emma Hartley
TTITLE5=Ain't Too Good at Losing
TTITLE6=Changing of the Seasons
TTITLE7=5th Avenue Bar
TTITLE8=On With the Night
TTITLE9=Coyote Creek
TTITLE10=Death of Outlaw Billy John
TTITLE11=No Kind of Forgiveness
EXTD=
EXTT0=
EXTT1=
EXTT2=
EXTT3=
EXTT4=
EXTT5=
EXTT6=
EXTT7=
EXTT8=
EXTT9=
EXTT10=
EXTT11=
PLAYORDER=
